# xmcd
# Track frame offsets:
# 150
# 17765
# 31865
# 51665
# 66665
# 84065
# 101615
# 118265
# 131538
#
# Disc length: 1991 seconds
# Revision: 0
# Processed by: cddbd v1.5.1PL0 Copyright (c) Steve Scherf et al.
# Submitted via: VisiTrax 2.9.10.228 - For more info visit www.synapsa.com
#
DISCID=7907c509
DTITLE=Various Artist - Hits Monthly Nashville  PHN0111
DYEAR=1900
DGENRE=Karaoke
TTITLE0=Lonestar - With Me
TTITLE1=McEntire, Reba - I'm A Survivor
TTITLE2=McGraw, Tim - Angry All The Time
TTITLE3=McGuinn, Mark - That's A Plan
TTITLE4=Dixie Chicks - Heartbreak Town
TTITLE5=Raye, Colin - Ain't Nobody Gonna Take That From Me
TTITLE6=Chesney, Kenny - Tin Man, The
TTITLE7=Kayle, Kourtney - Unbroken By You
TTITLE8=Tippin, Aaron - Always Was
EXTD=
EXTT0=
EXTT1=
EXTT2=
EXTT3=
EXTT4=
EXTT5=
EXTT6=
EXTT7=
EXTT8=
PLAYORDER=
